g BazookaArm
v -0.4709174 3.555328E-08 -0.2354346
v 0.4709174 -3.555328E-08 -0.2354346
v -0.4709174 0.09009696 -0.2175132
v 0.4709174 0.0900969 -0.2175132
v -0.4709174 0.1664774 -0.1664774
v 0.4709174 0.1664774 -0.1664774
v -0.4709174 0.2175132 -0.09009692
v 0.4709174 0.2175132 -0.09009692
v -0.4709174 0.2354346 1.029117E-08
v 0.4709174 0.2354346 1.029117E-08
v -0.4709174 0.2175132 0.09009692
v 0.4709174 0.2175132 0.09009692
v -0.4709174 0.1664774 0.1664774
v 0.4709174 0.1664774 0.1664774
v -0.4709174 0.09009698 0.2175132
v 0.4709174 0.0900969 0.2175132
v -0.4709174 1.497093E-08 0.2354346
v 0.4709174 -5.613562E-08 0.2354346
v -0.4709174 -0.0900969 0.2175132
v 0.4709174 -0.09009696 0.2175132
v -0.4709174 -0.1664774 0.1664774
v 0.4709174 -0.1664774 0.1664774
v -0.4709174 -0.2175132 0.09009696
v 0.4709174 -0.2175132 0.09009696
v -0.4709174 -0.2354346 -2.80753E-09
v 0.4709174 -0.2354346 -2.80753E-09
v -0.4709174 -0.2175132 -0.09009696
v 0.4709174 -0.2175132 -0.09009696
v -0.4709174 -0.1664774 -0.1664774
v 0.4709174 -0.1664775 -0.1664774
v -0.4709174 -0.0900969 -0.2175132
v 0.4709174 -0.09009696 -0.2175132
v -0.4709174 3.555328E-08 -0.2354346
v 0.4709174 -3.555328E-08 -0.2354346
v -0.4709174 -0.2175132 -0.09009696
v -0.4709174 -0.2175132 0.09009696
v -0.4709174 -0.2354346 -2.80753E-09
v -0.4709174 -0.1664774 0.1664774
v -0.4709174 -0.1664774 -0.1664774
v -0.4709174 -0.0900969 -0.2175132
v -0.4709174 -0.0900969 0.2175132
v -0.4709174 1.497093E-08 0.2354346
v -0.4709174 3.555328E-08 -0.2354346
v -0.4709174 0.09009698 0.2175132
v -0.4709174 0.09009696 -0.2175132
v -0.4709174 0.1664774 -0.1664774
v -0.4709174 0.1664774 0.1664774
v -0.4709174 0.2175132 0.09009692
v -0.4709174 0.2175132 -0.09009692
v -0.4709174 0.2354346 1.029117E-08
v 0.4709174 -0.2175132 0.09009696
v 0.4709174 -0.2175132 -0.09009696
v 0.4709174 -0.2354346 -2.80753E-09
v 0.4709174 -0.1664774 0.1664774
v 0.4709174 -0.1664775 -0.1664774
v 0.4709174 -0.09009696 -0.2175132
v 0.4709174 -0.09009696 0.2175132
v 0.4709174 -3.555328E-08 -0.2354346
v 0.4709174 -5.613562E-08 0.2354346
v 0.4709174 0.0900969 0.2175132
v 0.4709174 0.0900969 -0.2175132
v 0.4709174 0.1664774 -0.1664774
v 0.4709174 0.1664774 0.1664774
v 0.4709174 0.2175132 -0.09009692
v 0.4709174 0.2175132 0.09009692
v 0.4709174 0.2354346 1.029117E-08
v -0.377741 2.851864E-08 -0.354347
v 0.377741 -2.851864E-08 -0.354347
v -0.377741 0.1356027 -0.3273738
v 0.377741 0.1356027 -0.3273738
v -0.377741 0.2505612 -0.2505612
v 0.377741 0.250561 -0.2505612
v -0.377741 0.3273738 -0.1356027
v 0.377741 0.3273738 -0.1356027
v -0.377741 0.354347 1.5489E-08
v 0.377741 0.3543468 1.5489E-08
v -0.377741 0.327374 0.1356027
v 0.377741 0.3273738 0.1356027
v -0.377741 0.2505612 0.2505612
v 0.377741 0.250561 0.2505612
v -0.377741 0.1356027 0.3273738
v 0.377741 0.1356027 0.3273738
v -0.377741 -2.459344E-09 0.354347
v 0.377741 -5.949664E-08 0.354347
v -0.377741 -0.1356027 0.3273738
v 0.377741 -0.1356027 0.3273738
v -0.377741 -0.250561 0.2505612
v 0.377741 -0.2505612 0.2505612
v -0.377741 -0.3273738 0.1356028
v 0.377741 -0.3273738 0.1356028
v -0.377741 -0.3543468 -4.225544E-09
v 0.377741 -0.354347 -4.225544E-09
v -0.377741 -0.3273738 -0.1356028
v 0.377741 -0.3273738 -0.1356028
v -0.377741 -0.2505612 -0.250561
v 0.377741 -0.2505612 -0.250561
v -0.377741 -0.1356027 -0.3273738
v 0.377741 -0.1356027 -0.3273738
v -0.377741 2.851864E-08 -0.354347
v 0.377741 -2.851864E-08 -0.354347
v -0.377741 -0.3273738 -0.1356028
v -0.377741 -0.3273738 0.1356028
v -0.377741 -0.3543468 -4.225544E-09
v -0.377741 -0.250561 0.2505612
v -0.377741 -0.2505612 -0.250561
v -0.377741 -0.1356027 -0.3273738
v -0.377741 -0.1356027 0.3273738
v -0.377741 -2.459344E-09 0.354347
v -0.377741 2.851864E-08 -0.354347
v -0.377741 0.1356027 0.3273738
v -0.377741 0.1356027 -0.3273738
v -0.377741 0.2505612 0.2505612
v -0.377741 0.2505612 -0.2505612
v -0.377741 0.327374 0.1356027
v -0.377741 0.3273738 -0.1356027
v -0.377741 0.354347 1.5489E-08
v 0.377741 -0.3273738 0.1356028
v 0.377741 -0.3273738 -0.1356028
v 0.377741 -0.354347 -4.225544E-09
v 0.377741 -0.2505612 0.2505612
v 0.377741 -0.2505612 -0.250561
v 0.377741 -0.1356027 -0.3273738
v 0.377741 -0.1356027 0.3273738
v 0.377741 -2.851864E-08 -0.354347
v 0.377741 -5.949664E-08 0.354347
v 0.377741 0.1356027 0.3273738
v 0.377741 0.1356027 -0.3273738
v 0.377741 0.250561 -0.2505612
v 0.377741 0.250561 0.2505612
v 0.377741 0.3273738 -0.1356027
v 0.377741 0.3273738 0.1356027
v 0.377741 0.3543468 1.5489E-08
v -0.1586616 -0.05146956 -0.2377772
v -0.1586612 2.183162 -0.2377777
v -0.1458294 -0.05146956 -0.2024126
v -0.145829 2.183162 -0.2024131
v -0.1092864 -0.05146956 -0.172432
v -0.109286 2.183162 -0.1724325
v -0.05459578 -0.05146956 -0.1523996
v -0.05459541 2.183162 -0.1524001
v 0.009916157 -0.05146956 -0.1453651
v 0.009916514 2.183162 -0.1453656
v 0.07442806 -0.05146956 -0.1523996
v 0.07442842 2.183162 -0.1524001
v 0.1291186 -0.05146956 -0.172432
v 0.129119 2.183162 -0.1724325
v 0.1656617 -0.05146956 -0.2024126
v 0.1656621 2.183162 -0.2024131
v 0.1784939 -0.05146956 -0.2377772
v 0.1784942 2.183162 -0.2377777
v 0.1656617 -0.05146956 -0.2731417
v 0.1656621 2.183162 -0.2731422
v 0.1291186 -0.05146956 -0.3031223
v 0.129119 2.183162 -0.3031228
v 0.07442808 -0.05146956 -0.3231547
v 0.07442844 2.183162 -0.3231552
v 0.009916127 -0.05146956 -0.3301893
v 0.009916514 2.183162 -0.3301897
v -0.05459583 -0.05146956 -0.3231547
v -0.05459544 2.183162 -0.3231553
v -0.1092863 -0.05146956 -0.3031224
v -0.109286 2.183162 -0.3031228
v -0.1458294 -0.05146956 -0.2731417
v -0.1458291 2.183162 -0.2731422
v -0.1586616 -0.05146956 -0.2377772
v -0.1586612 2.183162 -0.2377777
v -0.1586616 -0.05146956 0.2179448
v -0.1458294 -0.05146956 0.1825803
v -0.1586612 2.183162 0.2179446
v -0.145829 2.183162 0.1825801
v -0.1092863 -0.05146956 0.1525997
v -0.109286 2.183162 0.1525995
v -0.05459577 -0.05146956 0.1325673
v -0.0545954 2.183162 0.1325671
v 0.009916171 -0.05146956 0.1255328
v 0.009916529 2.183162 0.1255326
v 0.07442807 -0.05146956 0.1325673
v 0.07442842 2.183162 0.1325671
v 0.1291187 -0.05146956 0.1525997
v 0.129119 2.183162 0.1525995
v 0.1656617 -0.05146956 0.1825803
v 0.1656621 2.183162 0.1825801
v 0.1784939 -0.05146956 0.2179448
v 0.1784942 2.183162 0.2179446
v 0.1656617 -0.05146956 0.2533094
v 0.1656621 2.183162 0.2533092
v 0.1291187 -0.05146956 0.28329
v 0.129119 2.183162 0.2832898
v 0.07442811 -0.05146956 0.3033224
v 0.07442847 2.183162 0.3033222
v 0.009916157 -0.05146956 0.3103569
v 0.009916544 2.183162 0.3103566
v -0.0545958 -0.05146956 0.3033224
v -0.05459541 2.183162 0.3033222
v -0.1092863 -0.05146956 0.2832901
v -0.1092859 2.183162 0.2832898
v -0.1458294 -0.05146956 0.2533094
v -0.145829 2.183162 0.2533092
v -0.1586616 -0.05146956 0.2179448
v -0.1586612 2.183162 0.2179446
vt 1 1
vt 1 0.5
vt 0.9375 1
vt 0.9375 0.5
vt 0.875 1
vt 0.875 0.5
vt 0.8125 1
vt 0.8125 0.5
vt 0.75 1
vt 0.75 0.5
vt 0.6875 1
vt 0.6875 0.5
vt 0.625 1
vt 0.625 0.5
vt 0.5625 1
vt 0.5625 0.5
vt 0.5 1
vt 0.5 0.5
vt 0.4375 1
vt 0.4375 0.5
vt 0.375 1
vt 0.375 0.5
vt 0.3125 1
vt 0.3125 0.5
vt 0.25 1
vt 0.25 0.5
vt 0.1875 1
vt 0.1875 0.5
vt 0.125 1
vt 0.125 0.5
vt 0.0625 1
vt 0.0625 0.5
vt 0 1
vt 0 0.5
vt 0.02827454 0.3417969
vt 0.02827454 0.1582031
vt 0.01000214 0.25
vt 0.08032227 0.08032227
vt 0.08032227 0.4196777
vt 0.1582031 0.4716797
vt 0.1582031 0.02827454
vt 0.25 0.01000214
vt 0.25 0.4899902
vt 0.3417969 0.02827454
vt 0.3417969 0.4716797
vt 0.4196777 0.4196777
vt 0.4196777 0.08032227
vt 0.4716797 0.1582031
vt 0.4716797 0.3417969
vt 0.4899902 0.25
vt 0.5283203 0.1582031
vt 0.5283203 0.3417969
vt 0.5097656 0.25
vt 0.5800781 0.08032227
vt 0.5800781 0.4196777
vt 0.6582031 0.4716797
vt 0.6582031 0.02827454
vt 0.75 0.4899902
vt 0.75 0.01000214
vt 0.8417969 0.02827454
vt 0.8417969 0.4716797
vt 0.9199219 0.4196777
vt 0.9199219 0.08032227
vt 0.9716797 0.3417969
vt 0.9716797 0.1582031
vt 0.9902344 0.25
vt 1 1
vt 1 0.5
vt 0.9375 1
vt 0.9375 0.5
vt 0.875 1
vt 0.875 0.5
vt 0.8125 1
vt 0.8125 0.5
vt 0.75 1
vt 0.75 0.5
vt 0.6875 1
vt 0.6875 0.5
vt 0.625 1
vt 0.625 0.5
vt 0.5625 1
vt 0.5625 0.5
vt 0.5 1
vt 0.5 0.5
vt 0.4375 1
vt 0.4375 0.5
vt 0.375 1
vt 0.375 0.5
vt 0.3125 1
vt 0.3125 0.5
vt 0.25 1
vt 0.25 0.5
vt 0.1875 1
vt 0.1875 0.5
vt 0.125 1
vt 0.125 0.5
vt 0.0625 1
vt 0.0625 0.5
vt 0 1
vt 0 0.5
vt 0.02827454 0.3417969
vt 0.02827454 0.1582031
vt 0.01000214 0.25
vt 0.08032227 0.08032227
vt 0.08032227 0.4196777
vt 0.1582031 0.4716797
vt 0.1582031 0.02827454
vt 0.25 0.01000214
vt 0.25 0.4899902
vt 0.3417969 0.02827454
vt 0.3417969 0.4716797
vt 0.4196777 0.08032227
vt 0.4196777 0.4196777
vt 0.4716797 0.1582031
vt 0.4716797 0.3417969
vt 0.4899902 0.25
vt 0.5283203 0.1582031
vt 0.5283203 0.3417969
vt 0.5097656 0.25
vt 0.5800781 0.08032227
vt 0.5800781 0.4196777
vt 0.6582031 0.4716797
vt 0.6582031 0.02827454
vt 0.75 0.4899902
vt 0.75 0.01000214
vt 0.8417969 0.02827454
vt 0.8417969 0.4716797
vt 0.9199219 0.4196777
vt 0.9199219 0.08032227
vt 0.9716797 0.3417969
vt 0.9716797 0.1582031
vt 0.9902344 0.25
vt 1 1
vt 1 0
vt 0.9375 1
vt 0.9375 0
vt 0.875 1
vt 0.875 0
vt 0.8125 1
vt 0.8125 0
vt 0.75 1
vt 0.75 0
vt 0.6875 1
vt 0.6875 0
vt 0.625 1
vt 0.625 0
vt 0.5625 1
vt 0.5625 0
vt 0.5 1
vt 0.5 0
vt 0.4375 1
vt 0.4375 0
vt 0.375 1
vt 0.375 0
vt 0.3125 1
vt 0.3125 0
vt 0.25 1
vt 0.25 0
vt 0.1875 1
vt 0.1875 0
vt 0.125 1
vt 0.125 0
vt 0.0625 1
vt 0.0625 0
vt 0 1
vt 0 0
vt 1 1
vt 0.9375 1
vt 1 0
vt 0.9375 0
vt 0.875 1
vt 0.875 0
vt 0.8125 1
vt 0.8125 0
vt 0.75 1
vt 0.75 0
vt 0.6875 1
vt 0.6875 0
vt 0.625 1
vt 0.625 0
vt 0.5625 1
vt 0.5625 0
vt 0.5 1
vt 0.5 0
vt 0.4375 1
vt 0.4375 0
vt 0.375 1
vt 0.375 0
vt 0.3125 1
vt 0.3125 0
vt 0.25 1
vt 0.25 0
vt 0.1875 1
vt 0.1875 0
vt 0.125 1
vt 0.125 0
vt 0.0625 1
vt 0.0625 0
vt 0 1
vt 0 0
vn 0 0 -1
vn 0 0 -1
vn 0 0.3826833 -0.9238795
vn 0 0.3826835 -0.9238795
vn 0 0.7071067 -0.7071068
vn 0 0.7071068 -0.7071067
vn 0 0.9238795 -0.3826834
vn 0 0.9238794 -0.3826835
vn 0 1 0
vn 0 1 0
vn 0 0.9238795 0.3826834
vn 0 0.9238795 0.3826835
vn 0 0.7071069 0.7071066
vn 0 0.7071066 0.7071069
vn 0 0.3826835 0.9238795
vn 0 0.3826833 0.9238795
vn 0 0 1
vn 0 0 1
vn 0 -0.3826834 0.9238795
vn 0 -0.3826835 0.9238795
vn 0 -0.7071065 0.7071071
vn 0 -0.7071068 0.7071067
vn 0 -0.9238794 0.3826836
vn 0 -0.9238795 0.3826835
vn 0 -1 0
vn 0 -1 0
vn 0 -0.9238794 -0.3826837
vn 0 -0.9238796 -0.3826833
vn 0 -0.7071068 -0.7071067
vn 0 -0.7071068 -0.7071067
vn 0 -0.3826836 -0.9238794
vn 0 -0.3826834 -0.9238795
vn 0 0 -1
vn 0 0 -1
vn -1 0 0
vn -1 0 0
vn -1 0 0
vn -1 0 0
vn -1 0 0
vn -1 0 0
vn -1 0 0
vn -1 0 0
vn -1 0 0
vn -1 0 0
vn -1 0 0
vn -1 0 0
vn -1 0 0
vn -1 0 0
vn -1 0 0
vn -1 0 0
vn 1 0 0
vn 1 0 0
vn 1 0 0
vn 1 0 0
vn 1 0 0
vn 1 0 0
vn 1 0 0
vn 1 0 0
vn 1 0 0
vn 1 0 0
vn 1 0 0
vn 1 0 0
vn 1 0 0
vn 1 0 0
vn 1 0 0
vn 1 0 0
vn 0 0 -1
vn 0 0 -1
vn 0 0.3826833 -0.9238796
vn 0 0.3826836 -0.9238794
vn 0 0.7071069 -0.7071066
vn 0 0.7071066 -0.7071069
vn 0 0.9238795 -0.3826833
vn 0 0.9238796 -0.3826831
vn 0 1 0
vn 0 1 0
vn 0 0.9238796 0.3826831
vn 0 0.9238796 0.3826831
vn 0 0.7071064 0.7071072
vn 0 0.7071066 0.7071069
vn 0 0.3826833 0.9238795
vn 0 0.3826836 0.9238794
vn 0 0 1
vn 0 0 1
vn 0 -0.3826836 0.9238794
vn 0 -0.3826833 0.9238795
vn 0 -0.7071065 0.7071071
vn 0 -0.7071066 0.7071069
vn 0 -0.9238796 0.3826831
vn 0 -0.9238796 0.3826833
vn 0 -1 0
vn 0 -1 0
vn 0 -0.9238797 -0.3826831
vn 0 -0.9238794 -0.3826838
vn 0 -0.7071068 -0.7071068
vn 0 -0.7071069 -0.7071066
vn 0 -0.3826838 -0.9238794
vn 0 -0.3826839 -0.9238794
vn 0 0 -1
vn 0 0 -1
vn -1 0 0
vn -1 0 0
vn -1 0 0
vn -1 0 0
vn -1 0 0
vn -1 0 0
vn -1 0 0
vn -1 0 0
vn -1 0 0
vn -1 0 0
vn -1 0 0
vn -1 0 0
vn -1 0 0
vn -1 0 0
vn -1 0 0
vn -1 0 0
vn 1 0 0
vn 1 0 0
vn 1 0 0
vn 1 0 0
vn 1 0 0
vn 1 0 0
vn 1 0 0
vn 1 0 0
vn 1 0 0
vn 1 0 0
vn 1 0 0
vn 1 0 0
vn 1 0 0
vn 1 0 0
vn 1 0 0
vn 1 0 0
vn -0.9885118 0 0.1511436
vn -0.9885119 0 0.1511429
vn -0.8162512 0 0.5776972
vn -0.8162518 0 0.5776962
vn -0.4960892 0 0.8682716
vn -0.4960892 0 0.8682716
vn -0.2278418 0 0.9736981
vn -0.2278422 0 0.973698
vn 0 0 1
vn 0 0 1
vn 0.2278416 0 0.9736981
vn 0.2278424 0 0.973698
vn 0.4960889 0 0.8682717
vn 0.496089 0 0.8682716
vn 0.8162517 0 0.5776964
vn 0.8162515 0 0.5776967
vn 1 0 0
vn 1 0 0
vn 0.8162515 0 -0.5776968
vn 0.8162512 0 -0.577697
vn 0.4960895 0 -0.8682713
vn 0.4960894 0 -0.8682714
vn 0.2278422 0 -0.973698
vn 0.2278423 0 -0.973698
vn 0 0 -1
vn 0 0 -1
vn -0.2278429 0 -0.9736979
vn -0.2278416 0 -0.9736983
vn -0.4960891 0 -0.8682716
vn -0.496089 0 -0.8682717
vn -0.8162515 0 -0.5776968
vn -0.8162514 0 -0.5776969
vn -0.9885119 0 -0.1511425
vn -0.988512 0 -0.151142
vn -0.9885119 0 -0.1511426
vn -0.8162512 0 -0.577697
vn -0.9885119 -9.339181E-05 -0.1511429
vn -0.8162519 0 -0.5776962
vn -0.4960891 0 -0.8682716
vn -0.4960892 0 -0.8682716
vn -0.227842 0 -0.9736981
vn -0.227842 0 -0.9736981
vn 0 0 -1
vn 0 0 -1
vn 0.2278416 0 -0.9736983
vn 0.2278424 0 -0.973698
vn 0.4960889 0 -0.8682718
vn 0.496089 0 -0.8682717
vn 0.8162516 0 -0.5776965
vn 0.8162516 0 -0.5776966
vn 1 0 0
vn 1 0 0
vn 0.8162512 0 0.577697
vn 0.8162514 0 0.5776968
vn 0.4960895 0 0.8682714
vn 0.4960887 0 0.8682719
vn 0.2278431 0 0.9736979
vn 0.2278415 0 0.9736983
vn 0 0 1
vn 0 0 1
vn -0.227842 0 0.9736981
vn -0.2278419 0 0.9736981
vn -0.496089 0 0.8682716
vn -0.496089 0 0.8682717
vn -0.8162516 0 0.5776966
vn -0.8162512 0 0.577697
vn -0.988512 0 0.1511424
vn -0.9885119 0 0.1511425
g BazookaArm_0
f 3/3/3 2/2/2 1/1/1
f 4/4/4 2/2/2 3/3/3
f 5/5/5 4/4/4 3/3/3
f 6/6/6 4/4/4 5/5/5
f 7/7/7 6/6/6 5/5/5
f 8/8/8 6/6/6 7/7/7
f 9/9/9 8/8/8 7/7/7
f 10/10/10 8/8/8 9/9/9
f 11/11/11 10/10/10 9/9/9
f 12/12/12 10/10/10 11/11/11
f 13/13/13 12/12/12 11/11/11
f 14/14/14 12/12/12 13/13/13
f 15/15/15 14/14/14 13/13/13
f 16/16/16 14/14/14 15/15/15
f 17/17/17 16/16/16 15/15/15
f 18/18/18 16/16/16 17/17/17
f 19/19/19 18/18/18 17/17/17
f 20/20/20 18/18/18 19/19/19
f 21/21/21 20/20/20 19/19/19
f 22/22/22 20/20/20 21/21/21
f 23/23/23 22/22/22 21/21/21
f 24/24/24 22/22/22 23/23/23
f 25/25/25 24/24/24 23/23/23
f 26/26/26 24/24/24 25/25/25
f 27/27/27 26/26/26 25/25/25
f 28/28/28 26/26/26 27/27/27
f 29/29/29 28/28/28 27/27/27
f 30/30/30 28/28/28 29/29/29
f 31/31/31 30/30/30 29/29/29
f 32/32/32 30/30/30 31/31/31
f 33/33/33 32/32/32 31/31/31
f 34/34/34 32/32/32 33/33/33
f 37/37/37 36/36/36 35/35/35
f 38/38/38 35/35/35 36/36/36
f 39/39/39 35/35/35 38/38/38
f 40/40/40 39/39/39 38/38/38
f 41/41/41 40/40/40 38/38/38
f 42/42/42 40/40/40 41/41/41
f 43/43/43 40/40/40 42/42/42
f 44/44/44 43/43/43 42/42/42
f 45/45/45 43/43/43 44/44/44
f 46/46/46 45/45/45 44/44/44
f 47/47/47 46/46/46 44/44/44
f 48/48/48 46/46/46 47/47/47
f 49/49/49 46/46/46 48/48/48
f 50/50/50 49/49/49 48/48/48
f 53/53/53 52/52/52 51/51/51
f 54/54/54 51/51/51 52/52/52
f 55/55/55 54/54/54 52/52/52
f 56/56/56 54/54/54 55/55/55
f 57/57/57 54/54/54 56/56/56
f 58/58/58 57/57/57 56/56/56
f 59/59/59 57/57/57 58/58/58
f 60/60/60 59/59/59 58/58/58
f 61/61/61 60/60/60 58/58/58
f 62/62/62 60/60/60 61/61/61
f 63/63/63 60/60/60 62/62/62
f 64/64/64 63/63/63 62/62/62
f 65/65/65 63/63/63 64/64/64
f 66/66/66 65/65/65 64/64/64
g BazookaArm_1
f 69/69/69 68/68/68 67/67/67
f 70/70/70 68/68/68 69/69/69
f 71/71/71 70/70/70 69/69/69
f 72/72/72 70/70/70 71/71/71
f 73/73/73 72/72/72 71/71/71
f 74/74/74 72/72/72 73/73/73
f 75/75/75 74/74/74 73/73/73
f 76/76/76 74/74/74 75/75/75
f 77/77/77 76/76/76 75/75/75
f 78/78/78 76/76/76 77/77/77
f 79/79/79 78/78/78 77/77/77
f 80/80/80 78/78/78 79/79/79
f 81/81/81 80/80/80 79/79/79
f 82/82/82 80/80/80 81/81/81
f 83/83/83 82/82/82 81/81/81
f 84/84/84 82/82/82 83/83/83
f 85/85/85 84/84/84 83/83/83
f 86/86/86 84/84/84 85/85/85
f 87/87/87 86/86/86 85/85/85
f 88/88/88 86/86/86 87/87/87
f 89/89/89 88/88/88 87/87/87
f 90/90/90 88/88/88 89/89/89
f 91/91/91 90/90/90 89/89/89
f 92/92/92 90/90/90 91/91/91
f 93/93/93 92/92/92 91/91/91
f 94/94/94 92/92/92 93/93/93
f 95/95/95 94/94/94 93/93/93
f 96/96/96 94/94/94 95/95/95
f 97/97/97 96/96/96 95/95/95
f 98/98/98 96/96/96 97/97/97
f 99/99/99 98/98/98 97/97/97
f 100/100/100 98/98/98 99/99/99
f 103/103/103 102/102/102 101/101/101
f 104/104/104 101/101/101 102/102/102
f 105/105/105 101/101/101 104/104/104
f 106/106/106 105/105/105 104/104/104
f 107/107/107 106/106/106 104/104/104
f 108/108/108 106/106/106 107/107/107
f 109/109/109 106/106/106 108/108/108
f 110/110/110 109/109/109 108/108/108
f 111/111/111 109/109/109 110/110/110
f 112/112/112 111/111/111 110/110/110
f 113/113/113 111/111/111 112/112/112
f 114/114/114 113/113/113 112/112/112
f 115/115/115 113/113/113 114/114/114
f 116/116/116 115/115/115 114/114/114
f 119/119/119 118/118/118 117/117/117
f 120/120/120 117/117/117 118/118/118
f 121/121/121 120/120/120 118/118/118
f 122/122/122 120/120/120 121/121/121
f 123/123/123 120/120/120 122/122/122
f 124/124/124 123/123/123 122/122/122
f 125/125/125 123/123/123 124/124/124
f 126/126/126 125/125/125 124/124/124
f 127/127/127 126/126/126 124/124/124
f 128/128/128 126/126/126 127/127/127
f 129/129/129 126/126/126 128/128/128
f 130/130/130 129/129/129 128/128/128
f 131/131/131 129/129/129 130/130/130
f 132/132/132 131/131/131 130/130/130
g BazookaArm_2
f 135/135/135 134/134/134 133/133/133
f 136/136/136 134/134/134 135/135/135
f 137/137/137 136/136/136 135/135/135
f 138/138/138 136/136/136 137/137/137
f 139/139/139 138/138/138 137/137/137
f 140/140/140 138/138/138 139/139/139
f 141/141/141 140/140/140 139/139/139
f 142/142/142 140/140/140 141/141/141
f 143/143/143 142/142/142 141/141/141
f 144/144/144 142/142/142 143/143/143
f 145/145/145 144/144/144 143/143/143
f 146/146/146 144/144/144 145/145/145
f 147/147/147 146/146/146 145/145/145
f 148/148/148 146/146/146 147/147/147
f 149/149/149 148/148/148 147/147/147
f 150/150/150 148/148/148 149/149/149
f 151/151/151 150/150/150 149/149/149
f 152/152/152 150/150/150 151/151/151
f 153/153/153 152/152/152 151/151/151
f 154/154/154 152/152/152 153/153/153
f 155/155/155 154/154/154 153/153/153
f 156/156/156 154/154/154 155/155/155
f 157/157/157 156/156/156 155/155/155
f 158/158/158 156/156/156 157/157/157
f 159/159/159 158/158/158 157/157/157
f 160/160/160 158/158/158 159/159/159
f 161/161/161 160/160/160 159/159/159
f 162/162/162 160/160/160 161/161/161
f 163/163/163 162/162/162 161/161/161
f 164/164/164 162/162/162 163/163/163
f 165/165/165 164/164/164 163/163/163
f 166/166/166 164/164/164 165/165/165
f 169/169/169 168/168/168 167/167/167
f 169/169/169 170/170/170 168/168/168
f 170/170/170 171/171/171 168/168/168
f 170/170/170 172/172/172 171/171/171
f 172/172/172 173/173/173 171/171/171
f 172/172/172 174/174/174 173/173/173
f 174/174/174 175/175/175 173/173/173
f 174/174/174 176/176/176 175/175/175
f 176/176/176 177/177/177 175/175/175
f 176/176/176 178/178/178 177/177/177
f 178/178/178 179/179/179 177/177/177
f 178/178/178 180/180/180 179/179/179
f 180/180/180 181/181/181 179/179/179
f 180/180/180 182/182/182 181/181/181
f 182/182/182 183/183/183 181/181/181
f 182/182/182 184/184/184 183/183/183
f 184/184/184 185/185/185 183/183/183
f 184/184/184 186/186/186 185/185/185
f 186/186/186 187/187/187 185/185/185
f 186/186/186 188/188/188 187/187/187
f 188/188/188 189/189/189 187/187/187
f 188/188/188 190/190/190 189/189/189
f 190/190/190 191/191/191 189/189/189
f 190/190/190 192/192/192 191/191/191
f 192/192/192 193/193/193 191/191/191
f 192/192/192 194/194/194 193/193/193
f 194/194/194 195/195/195 193/193/193
f 194/194/194 196/196/196 195/195/195
f 196/196/196 197/197/197 195/195/195
f 196/196/196 198/198/198 197/197/197
f 198/198/198 199/199/199 197/197/197
f 198/198/198 200/200/200 199/199/199
